<mxfile host="app.diagrams.net" modified="2021-09-13T18:27:46.713Z" agent="5.0 (X11; Linux x86_64) AppleWebKit/537.36 (KHTML, like Gecko) Chrome/92.0.4515.159 Safari/537.36" etag="F3GoUcPY2tWLdnG39TRd" version="15.2.4" type="github">
  <diagram id="C5RBs43oDa-KdzZeNtuy" name="Page-1">
    <mxGraphModel dx="813" dy="445" grid="1" gridSize="10" guides="1" tooltips="1" connect="1" arrows="1" fold="1" page="1" pageScale="1" pageWidth="827" pageHeight="1169" math="0" shadow="0">
      <root>
        <mxCell id="WIyWlLk6GJQsqaUBKTNV-0" />
        <mxCell id="WIyWlLk6GJQsqaUBKTNV-1" parent="WIyWlLk6GJQsqaUBKTNV-0" />
        <mxCell id="Ulu2q20EMFrFCK_u2LaK-10" value="" style="edgeStyle=orthogonalEdgeStyle;rounded=0;orthogonalLoop=1;jettySize=auto;html=1;strokeWidth=2;" edge="1" parent="WIyWlLk6GJQsqaUBKTNV-1" source="Ulu2q20EMFrFCK_u2LaK-0">
          <mxGeometry relative="1" as="geometry">
            <mxPoint x="250" y="250" as="targetPoint" />
          </mxGeometry>
        </mxCell>
        <mxCell id="Ulu2q20EMFrFCK_u2LaK-0" value="Text to test&lt;br&gt;.epub or .txt" style="strokeWidth=2;html=1;shape=mxgraph.flowchart.start_1;whiteSpace=wrap;" vertex="1" parent="WIyWlLk6GJQsqaUBKTNV-1">
          <mxGeometry x="200" y="120" width="100" height="60" as="geometry" />
        </mxCell>
        <mxCell id="Ulu2q20EMFrFCK_u2LaK-1" value="Keyboard &lt;br&gt;layout" style="strokeWidth=2;html=1;shape=mxgraph.flowchart.start_1;whiteSpace=wrap;" vertex="1" parent="WIyWlLk6GJQsqaUBKTNV-1">
          <mxGeometry x="370" y="120" width="100" height="60" as="geometry" />
        </mxCell>
        <mxCell id="Ulu2q20EMFrFCK_u2LaK-11" value="Is epub ?" style="strokeWidth=2;html=1;shape=mxgraph.flowchart.decision;whiteSpace=wrap;" vertex="1" parent="WIyWlLk6GJQsqaUBKTNV-1">
          <mxGeometry x="200" y="250" width="100" height="100" as="geometry" />
        </mxCell>
        <mxCell id="Ulu2q20EMFrFCK_u2LaK-12" value="" style="endArrow=classic;html=1;strokeWidth=2;exitX=0;exitY=0.5;exitDx=0;exitDy=0;exitPerimeter=0;" edge="1" parent="WIyWlLk6GJQsqaUBKTNV-1" source="Ulu2q20EMFrFCK_u2LaK-11">
          <mxGeometry width="50" height="50" relative="1" as="geometry">
            <mxPoint x="280" y="260" as="sourcePoint" />
            <mxPoint x="160" y="300" as="targetPoint" />
          </mxGeometry>
        </mxCell>
        <mxCell id="Ulu2q20EMFrFCK_u2LaK-13" value="" style="endArrow=classic;html=1;strokeWidth=2;exitX=0.5;exitY=1;exitDx=0;exitDy=0;exitPerimeter=0;" edge="1" parent="WIyWlLk6GJQsqaUBKTNV-1" source="Ulu2q20EMFrFCK_u2LaK-11">
          <mxGeometry width="50" height="50" relative="1" as="geometry">
            <mxPoint x="230" y="430" as="sourcePoint" />
            <mxPoint x="250" y="390" as="targetPoint" />
          </mxGeometry>
        </mxCell>
        <mxCell id="Ulu2q20EMFrFCK_u2LaK-14" value="No" style="text;html=1;strokeColor=none;fillColor=none;align=center;verticalAlign=middle;whiteSpace=wrap;rounded=0;" vertex="1" parent="WIyWlLk6GJQsqaUBKTNV-1">
          <mxGeometry x="250" y="350" width="40" height="20" as="geometry" />
        </mxCell>
        <mxCell id="Ulu2q20EMFrFCK_u2LaK-15" value="Yes" style="text;html=1;strokeColor=none;fillColor=none;align=center;verticalAlign=middle;whiteSpace=wrap;rounded=0;" vertex="1" parent="WIyWlLk6GJQsqaUBKTNV-1">
          <mxGeometry x="170" y="280" width="40" height="20" as="geometry" />
        </mxCell>
        <mxCell id="Ulu2q20EMFrFCK_u2LaK-20" value="" style="edgeStyle=orthogonalEdgeStyle;rounded=0;orthogonalLoop=1;jettySize=auto;html=1;strokeWidth=2;" edge="1" parent="WIyWlLk6GJQsqaUBKTNV-1" source="Ulu2q20EMFrFCK_u2LaK-16" target="Ulu2q20EMFrFCK_u2LaK-19">
          <mxGeometry relative="1" as="geometry" />
        </mxCell>
        <mxCell id="Ulu2q20EMFrFCK_u2LaK-16" value="ebooklib" style="rounded=1;whiteSpace=wrap;html=1;absoluteArcSize=1;arcSize=14;strokeWidth=2;" vertex="1" parent="WIyWlLk6GJQsqaUBKTNV-1">
          <mxGeometry x="60" y="285" width="100" height="30" as="geometry" />
        </mxCell>
        <mxCell id="Ulu2q20EMFrFCK_u2LaK-22" value="" style="edgeStyle=orthogonalEdgeStyle;rounded=0;orthogonalLoop=1;jettySize=auto;html=1;strokeWidth=2;" edge="1" parent="WIyWlLk6GJQsqaUBKTNV-1" source="Ulu2q20EMFrFCK_u2LaK-19" target="Ulu2q20EMFrFCK_u2LaK-21">
          <mxGeometry relative="1" as="geometry" />
        </mxCell>
        <mxCell id="Ulu2q20EMFrFCK_u2LaK-19" value="Get chapters list" style="whiteSpace=wrap;html=1;rounded=1;strokeWidth=2;arcSize=14;" vertex="1" parent="WIyWlLk6GJQsqaUBKTNV-1">
          <mxGeometry x="60" y="350" width="100" height="30" as="geometry" />
        </mxCell>
        <mxCell id="Ulu2q20EMFrFCK_u2LaK-25" value="" style="edgeStyle=orthogonalEdgeStyle;rounded=0;orthogonalLoop=1;jettySize=auto;html=1;strokeWidth=2;" edge="1" parent="WIyWlLk6GJQsqaUBKTNV-1" source="Ulu2q20EMFrFCK_u2LaK-21" target="Ulu2q20EMFrFCK_u2LaK-24">
          <mxGeometry relative="1" as="geometry" />
        </mxCell>
        <mxCell id="Ulu2q20EMFrFCK_u2LaK-21" value="Transform chapters in a string" style="whiteSpace=wrap;html=1;rounded=1;strokeWidth=2;arcSize=14;" vertex="1" parent="WIyWlLk6GJQsqaUBKTNV-1">
          <mxGeometry x="60" y="420" width="100" height="50" as="geometry" />
        </mxCell>
        <mxCell id="Ulu2q20EMFrFCK_u2LaK-27" value="" style="edgeStyle=orthogonalEdgeStyle;rounded=0;orthogonalLoop=1;jettySize=auto;html=1;strokeWidth=2;" edge="1" parent="WIyWlLk6GJQsqaUBKTNV-1" source="Ulu2q20EMFrFCK_u2LaK-24" target="Ulu2q20EMFrFCK_u2LaK-26">
          <mxGeometry relative="1" as="geometry" />
        </mxCell>
        <mxCell id="Ulu2q20EMFrFCK_u2LaK-24" value="Split every characters" style="whiteSpace=wrap;html=1;rounded=1;strokeWidth=2;arcSize=14;" vertex="1" parent="WIyWlLk6GJQsqaUBKTNV-1">
          <mxGeometry x="60" y="510" width="100" height="50" as="geometry" />
        </mxCell>
        <mxCell id="Ulu2q20EMFrFCK_u2LaK-26" value="Split every characters" style="whiteSpace=wrap;html=1;rounded=1;strokeWidth=2;arcSize=14;" vertex="1" parent="WIyWlLk6GJQsqaUBKTNV-1">
          <mxGeometry x="60" y="600" width="100" height="50" as="geometry" />
        </mxCell>
        <mxCell id="Ulu2q20EMFrFCK_u2LaK-30" value="" style="edgeStyle=orthogonalEdgeStyle;rounded=0;orthogonalLoop=1;jettySize=auto;html=1;strokeWidth=2;" edge="1" parent="WIyWlLk6GJQsqaUBKTNV-1" source="Ulu2q20EMFrFCK_u2LaK-28" target="Ulu2q20EMFrFCK_u2LaK-29">
          <mxGeometry relative="1" as="geometry" />
        </mxCell>
        <mxCell id="Ulu2q20EMFrFCK_u2LaK-28" value="Open text" style="whiteSpace=wrap;html=1;rounded=1;strokeWidth=2;arcSize=14;" vertex="1" parent="WIyWlLk6GJQsqaUBKTNV-1">
          <mxGeometry x="200" y="390" width="100" height="50" as="geometry" />
        </mxCell>
        <mxCell id="Ulu2q20EMFrFCK_u2LaK-29" value="Split every characters" style="whiteSpace=wrap;html=1;rounded=1;strokeWidth=2;arcSize=14;" vertex="1" parent="WIyWlLk6GJQsqaUBKTNV-1">
          <mxGeometry x="200" y="480" width="100" height="50" as="geometry" />
        </mxCell>
      </root>
    </mxGraphModel>
  </diagram>
</mxfile>
